<svg xmlns="http://www.w3.org/2000/svg" xmlns:xlink="http://www.w3.org/1999/xlink" width="300" zoomAndPan="magnify" viewBox="0 0 224.87999 225" height="300" preserveAspectRatio="xMidYMid meet" version="1.0"><defs><clipPath id="0bc4cff8df"><path d="M 0 0.0585938 L 224.761719 0.0585938 L 224.761719 224.9375 L 0 224.9375 Z M 0 0.0585938 " clip-rule="nonzero"/></clipPath><clipPath id="7adbc575bf"><path d="M 0.246094 0.546875 L 185.390625 0.546875 L 185.390625 185.695312 L 0.246094 185.695312 Z M 0.246094 0.546875 " clip-rule="nonzero"/></clipPath><clipPath id="b8710b19c1"><rect x="0" width="186" y="0" height="186"/></clipPath></defs><g clip-path="url(#0bc4cff8df)"><path fill="#ffffff" d="M 0 0.0585938 L 224.878906 0.0585938 L 224.878906 224.941406 L 0 224.941406 Z M 0 0.0585938 " fill-opacity="1" fill-rule="nonzero"/><path fill="#ffffff" d="M 0 0.0585938 L 224.878906 0.0585938 L 224.878906 224.941406 L 0 224.941406 Z M 0 0.0585938 " fill-opacity="1" fill-rule="nonzero"/></g><g transform="matrix(1, 0, 0, 1, 17, 22)"><g clip-path="url(#b8710b19c1)"><g clip-path="url(#7adbc575bf)"><path fill="#ffffff" d="M 0.246094 0.546875 L 185.390625 0.546875 L 185.390625 185.695312 L 0.246094 185.695312 Z M 0.246094 0.546875 " fill-opacity="1" fill-rule="nonzero"/></g><path stroke-linecap="butt" transform="matrix(5.003991, 0, 0, 5.003991, 0.244318, 0.548013)" fill-opacity="1" fill="#ffffff" fill-rule="nonzero" stroke-linejoin="miter" d="M 2.000321 2.500121 L 9.000203 2.500121 M 12.000152 2.500121 L 13.000135 2.500121 M 18.00005 2.500121 L 25.999915 2.500121 M 27.999881 2.500121 L 34.999762 2.500121 M 2.000321 3.500104 L 3.000304 3.500104 M 8.00022 3.500104 L 9.000203 3.500104 M 14.000118 3.500104 L 15.000101 3.500104 M 17.000067 3.500104 L 18.00005 3.500104 M 19.000033 3.500104 L 20.000016 3.500104 M 21.999983 3.500104 L 22.999966 3.500104 M 27.999881 3.500104 L 28.999864 3.500104 M 33.999779 3.500104 L 34.999762 3.500104 M 2.000321 4.500087 L 3.000304 4.500087 M 4.000287 4.500087 L 7.000236 4.500087 M 8.00022 4.500087 L 9.000203 4.500087 M 10.000186 4.500087 L 12.000152 4.500087 M 14.000118 4.500087 L 15.000101 4.500087 M 16.000084 4.500087 L 17.000067 4.500087 M 18.00005 4.500087 L 19.000033 4.500087 M 20.999999 4.500087 L 25.999915 4.500087 M 27.999881 4.500087 L 28.999864 4.500087 M 29.999847 4.500087 L 32.999796 4.500087 M 33.999779 4.500087 L 34.999762 4.500087 M 2.000321 5.50007 L 3.000304 5.50007 M 4.000287 5.50007 L 7.000236 5.50007 M 8.00022 5.50007 L 9.000203 5.50007 M 10.000186 5.50007 L 11.000169 5.50007 M 12.000152 5.50007 L 13.000135 5.50007 M 20.000016 5.50007 L 21.999983 5.50007 M 23.999949 5.50007 L 26.999898 5.50007 M 27.999881 5.50007 L 28.999864 5.50007 M 29.999847 5.50007 L 32.999796 5.50007 M 33.999779 5.50007 L 34.999762 5.50007 M 2.000321 6.500053 L 3.000304 6.500053 M 4.000287 6.500053 L 7.000236 6.500053 M 8.00022 6.500053 L 9.000203 6.500053 M 10.000186 6.500053 L 11.000169 6.500053 M 12.000152 6.500053 L 13.000135 6.500053 M 16.000084 6.500053 L 23.999949 6.500053 M 24.999932 6.500053 L 25.999915 6.500053 M 27.999881 6.500053 L 28.999864 6.500053 M 29.999847 6.500053 L 32.999796 6.500053 M 33.999779 6.500053 L 34.999762 6.500053 M 2.000321 7.500036 L 3.000304 7.500036 M 8.00022 7.500036 L 9.000203 7.500036 M 10.000186 7.500036 L 12.000152 7.500036 M 13.000135 7.500036 L 16.000084 7.500036 M 19.000033 7.500036 L 20.000016 7.500036 M 21.999983 7.500036 L 23.999949 7.500036 M 27.999881 7.500036 L 28.999864 7.500036 M 33.999779 7.500036 L 34.999762 7.500036 M 2.000321 8.500019 L 9.000203 8.500019 M 10.000186 8.500019 L 11.000169 8.500019 M 12.000152 8.500019 L 13.000135 8.500019 M 14.000118 8.500019 L 15.000101 8.500019 M 16.000084 8.500019 L 17.000067 8.500019 M 18.00005 8.500019 L 19.000033 8.500019 M 20.000016 8.500019 L 20.999999 8.500019 M 21.999983 8.500019 L 22.999966 8.500019 M 23.999949 8.500019 L 24.999932 8.500019 M 25.999915 8.500019 L 26.999898 8.500019 M 27.999881 8.500019 L 34.999762 8.500019 M 10.000186 9.500002 L 12.000152 9.500002 M 13.000135 9.500002 L 14.000118 9.500002 M 16.000084 9.500002 L 17.000067 9.500002 M 18.00005 9.500002 L 19.000033 9.500002 M 20.000016 9.500002 L 20.999999 9.500002 M 22.999966 9.500002 L 23.999949 9.500002 M 25.999915 9.500002 L 26.999898 9.500002 M 2.000321 10.499985 L 3.000304 10.499985 M 4.000287 10.499985 L 9.000203 10.499985 M 11.000169 10.499985 L 12.000152 10.499985 M 13.000135 10.499985 L 17.000067 10.499985 M 19.000033 10.499985 L 20.000016 10.499985 M 20.999999 10.499985 L 21.999983 10.499985 M 23.999949 10.499985 L 26.999898 10.499985 M 27.999881 10.499985 L 32.999796 10.499985 M 3.000304 11.499968 L 8.00022 11.499968 M 11.000169 11.499968 L 13.000135 11.499968 M 14.000118 11.499968 L 16.000084 11.499968 M 19.000033 11.499968 L 20.000016 11.499968 M 20.999999 11.499968 L 22.999966 11.499968 M 23.999949 11.499968 L 25.999915 11.499968 M 27.999881 11.499968 L 29.999847 11.499968 M 30.99983 11.499968 L 34.999762 11.499968 M 7.000236 12.499951 L 9.000203 12.499951 M 11.000169 12.499951 L 13.000135 12.499951 M 15.000101 12.499951 L 18.00005 12.499951 M 19.000033 12.499951 L 20.000016 12.499951 M 21.999983 12.499951 L 23.999949 12.499951 M 25.999915 12.499951 L 28.999864 12.499951 M 29.999847 12.499951 L 30.99983 12.499951 M 31.999813 12.499951 L 33.999779 12.499951 M 2.000321 13.499934 L 4.000287 13.499934 M 5.00027 13.499934 L 6.000253 13.499934 M 7.000236 13.499934 L 8.00022 13.499934 M 9.000203 13.499934 L 11.000169 13.499934 M 12.000152 13.499934 L 13.000135 13.499934 M 14.000118 13.499934 L 16.000084 13.499934 M 17.000067 13.499934 L 18.00005 13.499934 M 19.000033 13.499934 L 20.999999 13.499934 M 22.999966 13.499934 L 24.999932 13.499934 M 26.999898 13.499934 L 28.999864 13.499934 M 29.999847 13.499934 L 34.999762 13.499934 M 2.000321 14.499917 L 5.00027 14.499917 M 7.000236 14.499917 L 9.000203 14.499917 M 12.000152 14.499917 L 13.000135 14.499917 M 14.000118 14.499917 L 15.000101 14.499917 M 16.000084 14.499917 L 19.000033 14.499917 M 20.999999 14.499917 L 21.999983 14.499917 M 23.999949 14.499917 L 24.999932 14.499917 M 25.999915 14.499917 L 27.999881 14.499917 M 28.999864 14.499917 L 31.999813 14.499917 M 32.999796 14.499917 L 34.999762 14.499917 M 3.000304 15.499901 L 4.000287 15.499901 M 5.00027 15.499901 L 8.00022 15.499901 M 10.000186 15.499901 L 12.000152 15.499901 M 13.000135 15.499901 L 15.000101 15.499901 M 17.000067 15.499901 L 18.00005 15.499901 M 20.000016 15.499901 L 23.999949 15.499901 M 24.999932 15.499901 L 25.999915 15.499901 M 27.999881 15.499901 L 29.999847 15.499901 M 30.99983 15.499901 L 34.999762 15.499901 M 2.000321 16.499884 L 6.000253 16.499884 M 7.000236 16.499884 L 9.000203 16.499884 M 10.000186 16.499884 L 11.000169 16.499884 M 13.000135 16.499884 L 14.000118 16.499884 M 15.000101 16.499884 L 20.999999 16.499884 M 25.999915 16.499884 L 29.999847 16.499884 M 32.999796 16.499884 L 33.999779 16.499884 M 2.000321 17.499867 L 4.000287 17.499867 M 6.000253 17.499867 L 7.000236 17.499867 M 11.000169 17.499867 L 12.000152 17.499867 M 16.000084 17.499867 L 18.00005 17.499867 M 20.999999 17.499867 L 21.999983 17.499867 M 22.999966 17.499867 L 28.999864 17.499867 M 30.99983 17.499867 L 32.999796 17.499867 M 3.000304 18.49985 L 4.000287 18.49985 M 5.00027 18.49985 L 6.000253 18.49985 M 7.000236 18.49985 L 13.000135 18.49985 M 15.000101 18.49985 L 20.000016 18.49985 M 23.999949 18.49985 L 24.999932 18.49985 M 26.999898 18.49985 L 27.999881 18.49985 M 28.999864 18.49985 L 30.99983 18.49985 M 33.999779 18.49985 L 34.999762 18.49985 M 2.000321 19.499833 L 3.000304 19.499833 M 5.00027 19.499833 L 6.000253 19.499833 M 9.000203 19.499833 L 11.000169 19.499833 M 12.000152 19.499833 L 14.000118 19.499833 M 15.000101 19.499833 L 17.000067 19.499833 M 18.00005 19.499833 L 19.000033 19.499833 M 20.000016 19.499833 L 22.999966 19.499833 M 24.999932 19.499833 L 25.999915 19.499833 M 27.999881 19.499833 L 29.999847 19.499833 M 30.99983 19.499833 L 32.999796 19.499833 M 33.999779 19.499833 L 34.999762 19.499833 M 3.000304 20.499816 L 4.000287 20.499816 M 5.00027 20.499816 L 9.000203 20.499816 M 12.000152 20.499816 L 13.000135 20.499816 M 15.000101 20.499816 L 19.000033 20.499816 M 20.000016 20.499816 L 20.999999 20.499816 M 23.999949 20.499816 L 24.999932 20.499816 M 26.999898 20.499816 L 30.99983 20.499816 M 31.999813 20.499816 L 32.999796 20.499816 M 3.000304 21.499799 L 4.000287 21.499799 M 7.000236 21.499799 L 8.00022 21.499799 M 12.000152 21.499799 L 16.000084 21.499799 M 17.000067 21.499799 L 19.000033 21.499799 M 21.999983 21.499799 L 27.999881 21.499799 M 28.999864 21.499799 L 33.999779 21.499799 M 3.000304 22.499782 L 5.00027 22.499782 M 8.00022 22.499782 L 10.000186 22.499782 M 14.000118 22.499782 L 16.000084 22.499782 M 17.000067 22.499782 L 18.00005 22.499782 M 20.000016 22.499782 L 20.999999 22.499782 M 26.999898 22.499782 L 27.999881 22.499782 M 28.999864 22.499782 L 31.999813 22.499782 M 32.999796 22.499782 L 34.999762 22.499782 M 2.000321 23.499765 L 3.000304 23.499765 M 5.00027 23.499765 L 6.000253 23.499765 M 7.000236 23.499765 L 8.00022 23.499765 M 10.000186 23.499765 L 12.000152 23.499765 M 15.000101 23.499765 L 16.000084 23.499765 M 17.000067 23.499765 L 19.000033 23.499765 M 20.999999 23.499765 L 22.999966 23.499765 M 24.999932 23.499765 L 25.999915 23.499765 M 27.999881 23.499765 L 28.999864 23.499765 M 31.999813 23.499765 L 32.999796 23.499765 M 33.999779 23.499765 L 34.999762 23.499765 M 2.000321 24.499748 L 3.000304 24.499748 M 5.00027 24.499748 L 10.000186 24.499748 M 14.000118 24.499748 L 17.000067 24.499748 M 19.000033 24.499748 L 20.000016 24.499748 M 21.999983 24.499748 L 22.999966 24.499748 M 23.999949 24.499748 L 24.999932 24.499748 M 26.999898 24.499748 L 31.999813 24.499748 M 32.999796 24.499748 L 33.999779 24.499748 M 2.000321 25.499731 L 3.000304 25.499731 M 5.00027 25.499731 L 6.000253 25.499731 M 7.000236 25.499731 L 8.00022 25.499731 M 9.000203 25.499731 L 10.000186 25.499731 M 11.000169 25.499731 L 12.000152 25.499731 M 13.000135 25.499731 L 15.000101 25.499731 M 18.00005 25.499731 L 19.000033 25.499731 M 21.999983 25.499731 L 24.999932 25.499731 M 26.999898 25.499731 L 29.999847 25.499731 M 30.99983 25.499731 L 33.999779 25.499731 M 2.000321 26.499714 L 3.000304 26.499714 M 7.000236 26.499714 L 9.000203 26.499714 M 10.000186 26.499714 L 11.000169 26.499714 M 12.000152 26.499714 L 13.000135 26.499714 M 14.000118 26.499714 L 16.000084 26.499714 M 18.00005 26.499714 L 20.000016 26.499714 M 21.999983 26.499714 L 22.999966 26.499714 M 23.999949 26.499714 L 24.999932 26.499714 M 25.999915 26.499714 L 30.99983 26.499714 M 32.999796 26.499714 L 33.999779 26.499714 M 10.000186 27.499697 L 12.000152 27.499697 M 13.000135 27.499697 L 14.000118 27.499697 M 15.000101 27.499697 L 17.000067 27.499697 M 18.00005 27.499697 L 20.000016 27.499697 M 20.999999 27.499697 L 22.999966 27.499697 M 25.999915 27.499697 L 26.999898 27.499697 M 29.999847 27.499697 L 30.99983 27.499697 M 31.999813 27.499697 L 32.999796 27.499697 M 33.999779 27.499697 L 34.999762 27.499697 M 2.000321 28.49968 L 9.000203 28.49968 M 11.000169 28.49968 L 14.000118 28.49968 M 15.000101 28.49968 L 20.000016 28.49968 M 21.999983 28.49968 L 26.999898 28.49968 M 27.999881 28.49968 L 28.999864 28.49968 M 29.999847 28.49968 L 30.99983 28.49968 M 31.999813 28.49968 L 33.999779 28.49968 M 2.000321 29.499664 L 3.000304 29.499664 M 8.00022 29.499664 L 9.000203 29.499664 M 10.000186 29.499664 L 14.000118 29.499664 M 16.000084 29.499664 L 17.000067 29.499664 M 18.00005 29.499664 L 20.999999 29.499664 M 21.999983 29.499664 L 26.999898 29.499664 M 29.999847 29.499664 L 34.999762 29.499664 M 2.000321 30.499647 L 3.000304 30.499647 M 4.000287 30.499647 L 7.000236 30.499647 M 8.00022 30.499647 L 9.000203 30.499647 M 10.000186 30.499647 L 13.000135 30.499647 M 15.000101 30.499647 L 17.000067 30.499647 M 18.00005 30.499647 L 19.000033 30.499647 M 21.999983 30.499647 L 22.999966 30.499647 M 23.999949 30.499647 L 24.999932 30.499647 M 25.999915 30.499647 L 31.999813 30.499647 M 32.999796 30.499647 L 34.999762 30.499647 M 2.000321 31.49963 L 3.000304 31.49963 M 4.000287 31.49963 L 7.000236 31.49963 M 8.00022 31.49963 L 9.000203 31.49963 M 10.000186 31.49963 L 11.000169 31.49963 M 13.000135 31.49963 L 14.000118 31.49963 M 15.000101 31.49963 L 16.000084 31.49963 M 17.000067 31.49963 L 18.00005 31.49963 M 20.000016 31.49963 L 22.999966 31.49963 M 23.999949 31.49963 L 25.999915 31.49963 M 26.999898 31.49963 L 27.999881 31.49963 M 29.999847 31.49963 L 30.99983 31.49963 M 31.999813 31.49963 L 34.999762 31.49963 M 2.000321 32.499613 L 3.000304 32.499613 M 4.000287 32.499613 L 7.000236 32.499613 M 8.00022 32.499613 L 9.000203 32.499613 M 10.000186 32.499613 L 11.000169 32.499613 M 12.000152 32.499613 L 14.000118 32.499613 M 15.000101 32.499613 L 16.000084 32.499613 M 17.000067 32.499613 L 20.999999 32.499613 M 22.999966 32.499613 L 24.999932 32.499613 M 25.999915 32.499613 L 29.999847 32.499613 M 30.99983 32.499613 L 32.999796 32.499613 M 2.000321 33.500376 L 3.000304 33.500376 M 8.00022 33.500376 L 9.000203 33.500376 M 12.000152 33.500376 L 16.000084 33.500376 M 17.000067 33.500376 L 18.00005 33.500376 M 20.000016 33.500376 L 21.999983 33.500376 M 22.999966 33.500376 L 23.999949 33.500376 M 24.999932 33.500376 L 25.999915 33.500376 M 29.999847 33.500376 L 32.999796 33.500376 M 2.000321 34.50036 L 9.000203 34.50036 M 10.000186 34.50036 L 11.000169 34.50036 M 12.000152 34.50036 L 13.000135 34.50036 M 15.000101 34.50036 L 16.000084 34.50036 M 17.000067 34.50036 L 18.00005 34.50036 M 19.000033 34.50036 L 20.000016 34.50036 M 21.999983 34.50036 L 22.999966 34.50036 M 23.999949 34.50036 L 27.999881 34.50036 M 28.999864 34.50036 L 29.999847 34.50036 M 30.99983 34.50036 L 31.999813 34.50036 M 32.999796 34.50036 L 33.999779 34.50036 " stroke="#000000" stroke-width="1" stroke-opacity="1" stroke-miterlimit="4"/></g></g></svg>